<svg fill="none" xmlns="http://www.w3.org/2000/svg" viewBox="0 0 125 26" aria-labelledby="rowy-logo-title" role="img">
  <title id="rowy-logo-title">Rowy Docs</title>

  <path fill="#000" fill-rule="evenodd" clip-rule="evenodd" d="M32 7.75a6.25 6.25 0 1 1 0 12.5 6.25 6.25 0 0 1 0-12.5Zm0 2a4.25 4.25 0 1 0 0 8.5 4.25 4.25 0 0 0 0-8.5ZM20 20V8h6v2h-4v10h-2Zm24 0 3-9 3 9h2l4-12 5 11.5-2 4.5h2l7-16h-2l-4 9-4-9h-4l-3 9-3-9h-2l-3 9-3-9h-2l4 12h2Z"/>
  <path fill="#4200FF" fill-rule="evenodd" clip-rule="evenodd" d="M0 8v10a3 3 0 1 0 6 0v-7h7a3 3 0 1 0 0-6H8a2.997 2.997 0 0 0-2.5 1.341A3 3 0 0 0 0 8Zm10-2H8a2 2 0 0 0-1.995 1.85L6 8v2h4V6Zm-5 4V8a2 2 0 0 0-1.85-1.995L3 6a2 2 0 0 0-1.995 1.85L1 8v2h4Zm0 1H1v4h4v-4Zm-4 5v2a2 2 0 0 0 1.85 1.994L3 20a2 2 0 0 0 1.995-1.85L5 18v-2H1ZM11.001 6H13l.15.005A2 2 0 0 1 15 8l-.005.15A2 2 0 0 1 13 10h-1.999V6Z"/>
  <path fill="#4200FF" d="M84.675 2.5H82.85v7.25c-.675-1.225-2.475-2.15-4.25-2.15-3.45 0-6.075 2.725-6.075 6.3 0 3.6 2.625 6.35 6.075 6.35 1.75 0 3.55-.925 4.25-2.15V20h1.825V2.5Zm-10.35 11.4c0-2.65 1.975-4.6 4.575-4.6 1.625 0 3.25.925 3.95 2.25v4.775c-.725 1.275-2.35 2.2-3.95 2.2-2.6 0-4.575-1.975-4.575-4.625Zm18.931 6.35c3.5 0 6.3-2.75 6.3-6.325s-2.8-6.325-6.3-6.325c-3.525 0-6.3 2.75-6.3 6.325s2.775 6.325 6.3 6.325Zm-4.525-6.325c0-2.6 1.975-4.6 4.525-4.6 2.5 0 4.525 2 4.525 4.6 0 2.575-2.025 4.6-4.525 4.6-2.55 0-4.525-2.025-4.525-4.6Zm18.663 6.325c2.775 0 5.25-1.775 5.625-4.35h-1.85c-.35 1.575-2 2.625-3.775 2.625-2.525 0-4.475-2.025-4.475-4.6 0-2.6 1.95-4.6 4.475-4.6 1.8 0 3.375 1.05 3.775 2.5h1.85c-.45-2.425-2.875-4.225-5.625-4.225-3.525 0-6.275 2.75-6.275 6.325s2.75 6.325 6.275 6.325Zm12.27 0c2.6 0 4.525-1.55 4.525-3.7 0-5.025-7.375-2.4-7.375-5.675 0-1.05 1.025-1.75 2.5-1.75 1.5 0 2.625.825 2.8 1.95h1.85c-.275-2.175-2.275-3.475-4.6-3.475-2.625 0-4.325 1.425-4.325 3.4 0 4.7 7.375 2.175 7.375 5.6 0 1.225-1.125 2.075-2.825 2.075-1.7 0-2.925-.9-3.1-2.275h-1.75c.25 2.375 2.2 3.85 4.925 3.85Z"/>
</svg>
