<svg fill="none" xmlns="http://www.w3.org/2000/svg" viewBox="0 0 129 30">
  <path fill-rule="evenodd" clip-rule="evenodd" d="M0 20V10a5 5 0 0 1 7.5-4.331A4.977 4.977 0 0 1 10 5h5a5 5 0 0 1 0 10h-5v5a5 5 0 0 1-10 0Z" fill="#fff"/>
  <path fill-rule="evenodd" clip-rule="evenodd" d="M20 10a2 2 0 0 1 2-2h6c.721 0 1.354.382 1.705.955A8.212 8.212 0 0 1 34 7.75c1.573 0 3.044.44 4.295 1.205A2 2 0 0 1 40 8h2a2 2 0 0 1 1.897 1.368L45 12.675l1.103-3.307A2 2 0 0 1 48 8h2a2 2 0 0 1 1.897 1.368L53 12.675l1.103-3.307A2 2 0 0 1 56 8h4a2 2 0 0 1 1.828 1.188L64 14.076l2.172-4.888A2 2 0 0 1 68 8h2a2 2 0 0 1 1.832 2.802l-7 16A2 2 0 0 1 63 28h-2a2 2 0 0 1-1.828-2.812l1.643-3.697-2.568-5.907-2.35 7.049A2 2 0 0 1 54 24h-2a2 2 0 0 1-1.897-1.367L49 19.325l-1.103 3.308A2 2 0 0 1 46 24h-2a2 2 0 0 1-1.897-1.367l-.88-2.642A8.253 8.253 0 0 1 26 18.024V22a2 2 0 0 1-2.001 2h-2a2 2 0 0 1-2-2V10Z" fill="#fff"/>
  <path fill-rule="evenodd" clip-rule="evenodd" d="M34 9.75a6.25 6.25 0 1 1 0 12.5 6.25 6.25 0 0 1 0-12.5Zm0 2a4.25 4.25 0 1 0 0 8.5 4.25 4.25 0 0 0 0-8.5ZM22 22V10h6v2h-4v10h-2Zm24 0 3-9 3 9h2l4-12 5 11.5-2 4.5h2l7-16h-2l-4 9-4-9h-4l-3 9-3-9h-2l-3 9-3-9h-2l4 12h2Z" fill="#000"/>
  <path fill-rule="evenodd" clip-rule="evenodd" d="M2 10v10a3 3 0 1 0 6 0v-7h7a3 3 0 1 0 0-6h-5a2.997 2.997 0 0 0-2.5 1.341A3 3 0 0 0 2 10Zm10-2h-2a2 2 0 0 0-1.995 1.85L8 10v2h4V8Zm-5 4v-2a2 2 0 0 0-1.85-1.995L5 8a2 2 0 0 0-1.995 1.85L3 10v2h4Zm0 1H3v4h4v-4Zm-4 5v2a2 2 0 0 0 1.85 1.994L5 22a2 2 0 0 0 1.995-1.85L7 20v-2H3ZM13.001 8H15l.15.005A2 2 0 0 1 17 10l-.006.15A2 2 0 0 1 15 12h-1.999V8Z" fill="#4200FF"/>
  <path fill-rule="evenodd" clip-rule="evenodd" d="M86.675 2.5a2 2 0 0 1 2 2v6.299c1.51-1.96 3.883-3.199 6.581-3.199 3 0 5.617 1.549 7.075 3.925 1.443-2.373 4.039-3.925 7.063-3.925 2.434 0 4.809 1.102 6.263 2.948a5.175 5.175 0 0 1 1.31-1.55c1.183-.947 2.737-1.398 4.397-1.398 2.973 0 6.143 1.73 6.585 5.224a2.003 2.003 0 0 1-1.149 2.068c.885.895 1.389 2.12 1.389 3.658 0 3.62-3.225 5.7-6.525 5.7-1.714 0-3.339-.465-4.615-1.453a5.949 5.949 0 0 1-1.373-1.497c-1.459 1.883-3.87 2.95-6.282 2.95-3.024 0-5.62-1.552-7.063-3.925-1.458 2.377-4.075 3.925-7.075 3.925-2.698 0-5.071-1.239-6.581-3.199V22a2 2 0 0 1-2 2H84.85c-.452 0-.87-.15-1.204-.403a7.626 7.626 0 0 1-3.046.653c-4.638 0-8.075-3.731-8.075-8.35 0-4.61 3.452-8.3 8.075-8.3.771 0 1.535.125 2.25.348V4.5a2 2 0 0 1 2-2h1.825Z" fill="#fff"/>
  <path d="M86.675 4.5H84.85v7.25c-.675-1.225-2.475-2.15-4.25-2.15-3.45 0-6.075 2.725-6.075 6.3 0 3.6 2.625 6.35 6.075 6.35 1.75 0 3.55-.925 4.25-2.15V22h1.825V4.5Zm-10.35 11.4c0-2.65 1.975-4.6 4.575-4.6 1.625 0 3.25.925 3.95 2.25v4.775c-.725 1.275-2.35 2.2-3.95 2.2-2.6 0-4.575-1.975-4.575-4.625ZM95.256 22.25c3.5 0 6.3-2.75 6.3-6.325s-2.8-6.325-6.3-6.325c-3.525 0-6.3 2.75-6.3 6.325s2.775 6.325 6.3 6.325Zm-4.525-6.325c0-2.6 1.975-4.6 4.525-4.6 2.5 0 4.525 2 4.525 4.6 0 2.575-2.025 4.6-4.525 4.6-2.55 0-4.525-2.025-4.525-4.6ZM109.394 22.25c2.775 0 5.25-1.775 5.625-4.35h-1.85c-.35 1.575-2 2.625-3.775 2.625-2.525 0-4.475-2.025-4.475-4.6 0-2.6 1.95-4.6 4.475-4.6 1.8 0 3.375 1.05 3.775 2.5h1.85c-.45-2.425-2.875-4.225-5.625-4.225-3.525 0-6.275 2.75-6.275 6.325s2.75 6.325 6.275 6.325ZM121.664 22.25c2.6 0 4.525-1.55 4.525-3.7 0-5.025-7.375-2.4-7.375-5.675 0-1.05 1.025-1.75 2.5-1.75 1.5 0 2.625.825 2.8 1.95h1.85c-.275-2.175-2.275-3.475-4.6-3.475-2.625 0-4.325 1.425-4.325 3.4 0 4.7 7.375 2.175 7.375 5.6 0 1.225-1.125 2.075-2.825 2.075-1.7 0-2.925-.9-3.1-2.275h-1.75c.25 2.375 2.2 3.85 4.925 3.85Z" fill="#4200FF"/>
</svg>
