<svg fill="none" xmlns="http://www.w3.org/2000/svg" viewBox="0 0 108 26">
  <style>
    .color-primary { fill: var(--ifm-color-primary); }
    .color-secondary { fill: var(--ifm-font-color-base); }
  </style>

  <path class="color-secondary" fill-rule="evenodd" clip-rule="evenodd" d="M32 7.75a6.25 6.25 0 1 1 0 12.5 6.25 6.25 0 0 1 0-12.5Zm0 2a4.25 4.25 0 1 0 0 8.5 4.25 4.25 0 0 0 0-8.5ZM20 20V8h6v2h-4v10h-2Zm24 0 3-9 3 9h2l4-12 5 11.5-2 4.5h2l7-16h-2l-4 9-4-9h-4l-3 9-3-9h-2l-3 9-3-9h-2l4 12h2Z"/>
  <path class="color-primary" fill-rule="evenodd" clip-rule="evenodd" d="M0 8v10a3 3 0 1 0 6 0v-7h7a3 3 0 1 0 0-6H8a2.997 2.997 0 0 0-2.5 1.341A3 3 0 0 0 0 8Zm10-2H8a2 2 0 0 0-1.995 1.85L6 8v2h4V6Zm-5 4V8a2 2 0 0 0-1.85-1.995L3 6a2 2 0 0 0-1.995 1.85L1 8v2h4Zm0 1H1v4h4v-4Zm-4 5v2a2 2 0 0 0 1.85 1.994L3 20a2 2 0 0 0 1.995-1.85L5 18v-2H1ZM11.001 6H13l.15.005A2 2 0 0 1 15 8l-.005.15A2 2 0 0 1 13 10h-1.999V6Z"/>
  <path class="color-primary" d="M73.25 7.85h1.825v1.925A4.05 4.05 0 0 1 76.5 8.2c.633-.4 1.267-.6 1.9-.6.5 0 .908.058 1.225.175V9.5a3.957 3.957 0 0 0-1.35-.225c-.55 0-1.125.217-1.725.65-.6.417-1.092.983-1.475 1.7V20H73.25V7.85ZM90.9 18.075c-.4.667-.983 1.2-1.75 1.6-.766.383-1.6.575-2.5.575-1 0-1.874-.217-2.624-.65a4.598 4.598 0 0 1-1.75-1.9c-.417-.817-.625-1.767-.625-2.85v-7h1.825v6.75c0 1.167.325 2.108.975 2.825.65.7 1.508 1.05 2.575 1.05.817 0 1.575-.192 2.275-.575.7-.4 1.233-.933 1.6-1.6l.025-8.45h1.825V20H90.9v-1.925Zm7.007-8.325c.4-.667.983-1.192 1.75-1.575a5.513 5.513 0 0 1 2.5-.575c1 0 1.875.225 2.625.675.75.433 1.333 1.058 1.75 1.875.417.817.625 1.767.625 2.85v7h-1.825v-6.75c0-1.167-.325-2.1-.975-2.8-.65-.717-1.508-1.075-2.575-1.075-.8 0-1.558.192-2.275.575-.7.383-1.234.908-1.6 1.575V20h-1.825V7.85h1.825v1.9Z"/>
</svg>
